<?xml version="1.0" encoding="utf-8"?>
<!-- Generator: Adobe Illustrator 16.0.0, SVG Export Plug-In . SVG Version: 6.00 Build 0)  -->
<!DOCTYPE svg PUBLIC "-//W3C//DTD SVG 1.1//EN" "http://www.w3.org/Graphics/SVG/1.1/DTD/svg11.dtd">
<svg version="1.1" id="Layer_1" xmlns="http://www.w3.org/2000/svg" xmlns:xlink="http://www.w3.org/1999/xlink" x="0px" y="0px"
	 width="693px" height="262px" viewBox="0 0 693 262" enable-background="new 0 0 693 262" xml:space="preserve">
<path fill-rule="evenodd" clip-rule="evenodd" d="M585.045,100.205c0.463,1.342,1.256,2.039,2.357,2.441
	c1.92,0.699,3.845,1.385,5.749,2.121c0.567,0.221,1.044,0.773,1.613,0.867c1.728,0.283,3.229,1.066,5.277,0.553
	c2.796-0.703,5.868-0.314,8.821-0.367c0.182-0.004,0.367,0.223,0.857,0.543c-0.757,0.188-1.233,0.398-1.715,0.41
	c-1.998,0.051-3.998,0.049-5.998,0.053c-1.075,0.002-1.942,0.205-1.738,1.906c1.229-0.055,2.602,0.209,3.685-0.236
	c1.951-0.801,3.906-0.672,5.89-0.689c0.399-0.004,0.81-0.006,1.195,0.078c1.638,0.359,2.928-1.697,4.532-0.783
	c1.562,0.891,2.869,0.25,4.334-0.113c1.143-0.283,2.384-0.197,3.582-0.221c1.998-0.037,4.001,0.031,5.996-0.061
	c1.409-0.066,2.81-0.326,4.586-0.545c0.199,0.264,0.716,0.752,0.996,1.352c1.063,2.266,1.122,2.332,3.585,2.145
	c0.08-0.006,0.158-0.023,0.238-0.029c2.934-0.223,3.541,0.354,3.456,3.447c0.54,0.371,1.154,0.791,2.112,1.449
	c-0.883,0.188-1.38,0.375-1.88,0.381c-1.048,0.014-1.621,0.744-1.967,1.484c-0.397,0.85,0.336,1.236,1.067,1.527
	c0.202,0.08,0.414,0.5,0.384,0.732c-0.087,0.672,0.079,0.996,0.784,1.197c0.818,0.234,1.345,0.842,1.229,1.791
	c-0.11,0.904-0.822,1.082-1.542,1.248c-0.38,0.086-0.755,0.195-1.025,0.266c-0.854,1.273,0.596,1.521,0.756,2.232
	c0.163,0.717-0.104,1.533-0.197,2.457c1.034,0.414,2.075,0.832,3.117,1.25c-0.005,0.176-0.01,0.354-0.015,0.531
	c-0.941,0.148-1.882,0.295-2.963,0.465c0,0.785,0,1.555,0,2.43c-0.923,0.607-1.829,1.203-2.772,1.824
	c0.232,0.342,0.484,0.711,0.847,1.242c-0.868,0.791-1.718,1.566-2.625,2.393c0.519,0.881,2.524,1.029,1.418,2.279
	c-1.056,0.549-1.823,1.004-2.634,1.357c-1.715,0.748-3.481,1.381-5.175,2.172c-2.636,1.232-5.54,1.311-8.29,2.045
	c-1.152,0.307-2.353,0.426-3.521,0.682c-2.021,0.441-2.017,0.457-2.968,2.74c1.513,0.658,3.048,0.67,4.543,0.135
	c1.493-0.535,2.898-1.313,4.382-1.881c1.162-0.447,2.376-0.773,3.587-1.074c0.325-0.082,0.878,0,1.059,0.223
	c0.685,0.848,1.592,0.893,2.557,1.059c2.389,0.414,4.75,0.98,7.69,1.607c-0.991,0.318-1.457,0.58-1.936,0.604
	c-1.356,0.066-2.719,0.055-4.078,0.043c-2.284-0.02-4.635-0.438-6.695,1.428c-0.009,0.189-0.03,0.631-0.052,1.098
	c-0.281,0.049-0.519,0.143-0.741,0.117c-1.579-0.184-3.151-0.436-4.733-0.57c-0.795-0.066-1.77-0.531-2.269,0.664
	c-0.068,0.166-0.579,0.225-0.877,0.205c-2.068-0.135-3.83,0.754-5.615,1.602c-0.419,0.199-0.931,0.414-1.357,0.35
	c-2.436-0.377-4.146,1.027-5.609,2.523c-2.687,2.75-5.957,4.363-9.481,5.627c-2.428,0.869-4.778,2.127-7.277,2.586
	c-4.824,0.889-9.684,2.16-14.659,0.557c-1.178-0.379-2.536-0.256-3.812-0.26c-8.956-0.025-17.912-0.029-26.867-0.031
	c-9.758,0-19.515,0.012-29.271,0.018c-0.935,0-1.868,0-3.132,0c0.421,0.762,0.624,1.129,0.872,1.576
	c-0.504,0.199-0.99,0.391-1.566,0.617c0.169,0.275,0.242,0.494,0.395,0.623c0.357,0.301,0.823,0.496,1.119,0.842
	c0.84,0.982,0.511,2.102-0.725,2.318c-3.261,0.57-6.475,1.701-9.87,0.428c-0.861-0.322-2.032,0.027-3.024,0.238
	c-3.466,0.74-6.9,0.51-10.42-0.34c0.572-0.264,1.146-0.525,2.168-0.994c-3.36-0.184-6.215-0.293-9.059-0.525
	c-0.721-0.059-1.407-0.51-2.114-0.768c-0.658-0.238-1.313-0.611-1.989-0.658c-2.55-0.176-5.107-0.305-7.664-0.342
	c-7.438-0.104-14.877-0.131-22.314-0.25c-1.177-0.02-2.345-0.395-3.524-0.551c-1.34-0.178-2.686-0.379-4.032-0.414
	c-1.434-0.037-2.877,0.055-4.306,0.189c-0.848,0.08-1.688,0.313-2.51,0.555c-1.228,0.363-2.237,0.541-3.563-0.244
	c-1.109-0.656-2.775-0.432-4.199-0.486c-2.234-0.086-4.48,0.02-6.709-0.139c-1.97-0.139-3.942-0.313-5.735-1.428
	c-0.739-0.459-1.812-0.381-3.261-0.645c0.723-0.359,1.007-0.51,1.3-0.645c0.262-0.119,0.532-0.219,0.838-0.344
	c-0.181-0.227-0.27-0.438-0.361-0.439c-2.156-0.045-4.336-0.277-6.464-0.043c-2.814,0.311-5.584,1.02-8.383,1.5
	c-1.098,0.188-2.221,0.289-3.336,0.313c-3.358,0.072-6.719,0.043-10.076,0.148c-1.174,0.037-2.336,0.377-3.51,0.531
	c-0.706,0.094-1.436,0.207-2.132,0.125c-2.147-0.252-4.261-0.281-6.436-0.092c-3.308,0.285-6.651,0.127-9.979,0.213
	c-5.916,0.148-11.832,0.305-17.745,0.523c-4.872,0.182-9.745,0.389-14.608,0.723c-2.612,0.18-5.205,0.652-7.808,0.984
	c-4.198,0.533-8.388,1.15-12.598,1.561c-3.338,0.326-6.702,0.564-10.052,0.533c-4.063-0.041-8.177,0.09-12.143-1.092
	c-8.009-2.389-16.187-0.875-24.287-1.053c-2.142-0.047-4.322,0.672-6.431,0.473c-4.029-0.383-7.967,0.414-11.954,0.475
	c-11.511,0.176-23.021,0.564-34.532,0.639c-5.505,0.035-11.011-0.506-16.519-0.672c-2.344-0.072-4.791-0.635-6.961,0.932
	c-0.328,0.236-0.934,0.1-1.412,0.115c-7.193,0.215-14.385,0.498-21.58,0.625c-9.193,0.162-18.388,0.213-27.583,0.266
	c-1.185,0.008-2.371-0.264-3.556-0.412c-0.95-0.119-1.897-0.34-2.849-0.355c-3.357-0.055-6.717-0.045-10.076-0.051
	c-6.954-0.01-13.908-0.018-20.862-0.021c-4.472-0.002-8.943,0.016-13.416-0.002c-0.698-0.002-1.397-0.148-2.196-0.24
	c0-0.908,0-1.684,0-1.912c-0.887-1.186-1.811-1.898-1.969-2.754c-0.238-1.285,1.35-1.01,2.144-1.633
	c-0.322-0.381-0.6-0.709-0.875-1.035c0.938-1.379,2.111-2.553,0.842-4.506c-0.847-1.303-1.08-3.004-1.705-4.881
	c-0.507-0.52-1.432-0.674-2.548-0.646c-1.61,0.041-3.128-0.381-3.999-2.203c2.531-1.295,5.059-2.361,8.053-2.535
	c-0.411-0.469-0.651-0.742-1.004-1.143c0.192-0.268,0.411-0.547,0.604-0.842c1.14-1.729,0.293-3.486-1.748-3.775
	c-0.738-0.104-1.431-0.498-2.165-0.676c-0.424-0.104-1.14-0.227-1.294-0.02c-0.783,1.047-1.866,0.748-2.854,0.779
	c-3.993,0.123-7.988,0.203-11.982,0.297c-1.366,0.031-1.468-0.09-1.644-2.049c0.52-0.217,1.08-0.447,1.749-0.725
	c0.152-0.611,0.32-1.291,0.551-2.217c3.842-0.264,7.699-0.527,11.549-0.791c-0.192-1.559-0.602-1.836-1.713-1.105
	c-0.479,0.314-0.955,0.635-1.678,1.115c-0.234-1.031-0.383-1.689-0.603-2.66c-3.477,0-7.037,0-10.518,0
	c-0.247-0.953-0.293-1.668-0.612-2.227c-0.401-0.703-1.038-1.207-0.13-2.047c0.177-0.164-0.163-1.299-0.558-1.596
	c-1.351-1.014-1.075-2.678-1.634-3.975c-0.26-0.602,0.864-1.799,1.463-2.918c-0.405-1.045-0.931-2.402-1.438-3.713
	c0.573-0.545,1.133-1.074,1.639-1.553c-0.349-0.873-0.624-1.563-0.953-2.387c0.913-0.365,1.633-0.654,2.354-0.943
	c-1.569-1.15-2.927-2.451-3.575-4.357c2.02-0.955,4.442,0.688,6.18-1.885c-2.11-0.197-3.888-0.361-5.755-0.535
	c-0.025-0.762,0.626-1.461-0.127-2.164c-0.32-0.299-0.258-1.061-0.281-1.613c-0.108-2.635,0.295-3.039,2.949-3.133
	c9.432-0.336,18.862-0.68,28.293-1.027c0.443-0.016,0.885-0.102,1.585-0.188c-1.058-1.633-2.443-2.277-3.936-2.771
	c-0.907-0.301-1.846-0.531-2.706-0.932c-0.332-0.154-0.722-0.74-0.66-1.043c0.068-0.342,0.603-0.605,0.961-0.867
	c0.113-0.082,0.312-0.072,0.469-0.066c2.414,0.115,3.18-1.615,4.051-3.506c-0.509-0.166-0.862-0.348-1.231-0.391
	c-1.362-0.162-1.91-0.771-1.759-2.246c0.082-0.797-0.456-1.658-0.781-2.705c0.281-0.061,0.765-0.246,1.252-0.256
	c2.398-0.053,4.806,0.059,7.195-0.105c6.604-0.451,13.196-1.07,19.801-1.504c3.588-0.236,7.19-0.262,10.788-0.328
	c3.759-0.07,7.52-0.029,11.277-0.127c1.336-0.035,2.661-0.426,3.998-0.488c1.672-0.078,3.352-0.008,5.026,0.035
	c2.783,0.074,5.556,0.568,8.346-0.189c0.957-0.26,2.173-0.273,3.065,0.096c1.458,0.605,2.765,0.215,4.19,0.135
	c3.584-0.199,7.186-0.076,10.781-0.084c1.755-0.004,3.511-0.047,5.265-0.006c2.63,0.061,5.259,0.168,7.886,0.279
	c1.118,0.047,2.231,0.201,3.349,0.229c5.997,0.139,11.994,0.301,17.992,0.352c2.475,0.02,4.951-0.225,7.427-0.346
	c0.932-0.045,1.928-0.35,2.532,0.783c0.105,0.199,0.545,0.264,0.843,0.309c0.393,0.059,0.798,0.045,1.197,0.051
	c1.6,0.025,3.215-0.086,4.794,0.104c1.568,0.188,3.1,0.676,4.884,1.088c-0.25,0.355-0.445,0.609-0.614,0.879
	c-0.518,0.824-0.358,1.373,0.529,1.553c0.62,0.127,1.273,0.109,1.913,0.117c6.477,0.078,12.955,0.119,19.432,0.24
	c1.421,0.027,2.836,0.342,4.257,0.504c1.108,0.125,2.219,0.293,3.331,0.313c4.073,0.072,8.148,0.037,12.22,0.168
	c0.92,0.029,1.823,0.57,3.161,1.02c0.132-0.066,0.672-0.43,1.266-0.598c0.584-0.166,1.269-0.303,1.829-0.152
	c1.434,0.387,2.812,0.977,4.237,1.402c0.418,0.125,0.921-0.006,1.381-0.057c1.09-0.115,2.186-0.408,3.265-0.355
	c5.986,0.295,11.966,0.766,17.954,1c10.545,0.414,21.103,0.568,31.641,1.1c4.561,0.232,9.085,0.492,13.641,0.033
	c1.334-0.133,2.714,0.248,4.058,0.164c4.443-0.277,8.88-0.654,13.318-1.008c0.473-0.039,0.934-0.225,1.407-0.273
	c4.449-0.453,8.916-0.773,13.347-1.365c4.12-0.551,8.224-1.154,12.394-1.127c0.375,0.002,0.87-0.098,1.105-0.346
	c1.236-1.295,2.852-1.338,4.441-1.428c2.936-0.164,5.845-0.119,8.784-0.807c2.435-0.568,5.092-0.184,7.65-0.217
	c0.159-0.002,0.368-0.037,0.471,0.045c2.192,1.762,4.735,0.748,7.122,0.875c1.415,0.076,2.844-0.109,4.712-0.199
	c-0.915-0.434-1.437-0.68-2.433-1.15c0.528-0.236,0.734-0.404,0.945-0.41c0.554-0.016,1.373-0.188,1.619,0.102
	c1.225,1.432,2.778,0.844,4.233,0.906c0.793,0.033,1.642-0.053,2.366,0.199c1.583,0.555,3.024,0.68,4.601-0.143
	c0.712-0.373,1.725-0.18,2.602-0.221c4.066-0.197,8.133-0.391,12.2-0.57c0.556-0.025,1.116,0.025,1.674,0.059
	c3.188,0.189,6.373,0.418,9.563,0.553c0.977,0.041,1.842-0.041,2.546,0.91c0.281,0.379,1.128,0.486,1.71,0.473
	c5.195-0.135,10.389-0.336,15.584-0.48c0.815-0.023,1.637,0.129,2.618,0.217c-0.716,1.477-1.679,1.896-2.866,1.947
	c-0.959,0.043-1.922,0.045-2.875,0.135c-0.542,0.053-1.301,0.068-1.566,0.408c-2.101,2.695-5.234,2.852-8.182,3.459
	c-1.132,0.232-1.145,0.172-1.408,1.76c2.316,0,4.614,0.014,6.912-0.018c0.274-0.004,0.658-0.186,0.8-0.406
	c0.938-1.473,2.39-1.322,3.843-1.383c4.788-0.195,9.57-0.523,14.358-0.688c5.114-0.174,10.235-0.17,15.35-0.348
	c2.228-0.078,4.445-0.408,6.667-0.635c1.112-0.115,2.22-0.309,3.335-0.375c5.893-0.355,11.785-0.697,17.68-1.006
	c1.674-0.088,3.358,0.035,5.029-0.076c4.843-0.326,9.797-0.203,14.483-1.254c3.724-0.834,7.383-0.689,11.059-0.922
	c3.74-0.234,7.513,0.082,11.271,0.107c1.436,0.01,2.873-0.184,4.308-0.164c1.235,0.016,2.468,0.201,4.102,0.348
	c-0.755,1.068-1.232,1.746-1.771,2.508c1.586,2.01,4.149,1.908,6.441,2.742c0,0.469,0,0.982,0,1.781c-1.995,0-3.873,0-5.651,0
	c-0.421,1.119-0.224,1.602,0.72,1.852c0.82,0.217,1.628,0.574,2.36,1.006c1.146,0.674,1.047,1.588-0.16,2.232
	C586.555,99.359,585.813,99.781,585.045,100.205z"/>
<path fill-rule="evenodd" clip-rule="evenodd" fill="#FFFFFF" d="M106.14,3.896c0.636,0,1.271,0,1.907,0
	c0.002,0.114,0.003,0.229,0.005,0.344c-0.637,0-1.272,0-1.909,0C106.142,4.125,106.141,4.01,106.14,3.896z"/>
</svg>
