<?xml version="1.0" encoding="utf-8"?>
<!-- Generator: Adobe Illustrator 16.0.0, SVG Export Plug-In . SVG Version: 6.00 Build 0)  -->
<!DOCTYPE svg PUBLIC "-//W3C//DTD SVG 1.1//EN" "http://www.w3.org/Graphics/SVG/1.1/DTD/svg11.dtd">
<svg version="1.1" id="Layer_1" xmlns="http://www.w3.org/2000/svg" xmlns:xlink="http://www.w3.org/1999/xlink" x="0px" y="0px"
	 width="693px" height="262px" viewBox="0 0 693 262" enable-background="new 0 0 693 262" xml:space="preserve">
<path fill-rule="evenodd" clip-rule="evenodd" d="M421.405,88.182c-0.42,0.725-0.604,1.041-0.818,1.411
	c0.235,0.133,0.43,0.336,0.629,0.341c2.396,0.048,4.798-0.015,7.188,0.112c2.789,0.147,5.565,0.524,8.354,0.671
	c3.513,0.183,7.031,0.298,10.548,0.327c8.879,0.074,17.76-0.015,26.636,0.16c4.464,0.088,8.998,0.205,13.355,1.054
	c3.915,0.763,7.775,0.545,11.663,0.758c4.295,0.235,8.596,0.54,12.864,1.06c2.249,0.273,4.421,1.139,6.655,1.607
	c2.329,0.488,4.69,0.823,7.038,1.223c0.743,0.127,1.488,0.244,2.231,0.366c-0.003,0.187-0.006,0.374-0.009,0.561
	c-0.914,0.127-1.829,0.372-2.742,0.362c-4.797-0.053-9.594-0.207-14.391-0.253c-3.43-0.032-6.86,0.048-10.29,0.094
	c-0.112,0.002-0.222,0.184-0.685,0.594c5.991,0.264,11.65,0.512,17.383,0.763c0,0.507,0,0.947,0,1.509
	c-0.719,0.057-1.382,0.269-1.957,0.127c-2.624-0.648-5.317-0.19-7.956-0.578c-0.591-0.087-1.229,0.234-1.853,0.271
	c-1.336,0.078-2.685,0.201-4.014,0.109c-1.977-0.138-3.938-0.61-5.911-0.65c-5.436-0.11-10.875-0.066-16.313-0.094
	c-0.799-0.004-1.605-0.002-2.396-0.104c-1.979-0.254-3.915-0.47-5.94-0.066c-1.282,0.256-2.693-0.099-4.042-0.229
	c-0.711-0.069-1.456-0.465-2.11-0.335c-4.313,0.856-8.578-0.368-12.868-0.201c-0.715,0.027-1.43,0.079-2.687,0.15
	c0.955,0.443,1.577,0.567,1.954,0.94c0.893,0.881,1.822,0.873,2.834,0.363c1.46-0.735,2.875-0.5,4.412-0.134
	c1.764,0.421,3.619,0.455,5.436,0.654c1.813,0.2,3.622,0.448,5.439,0.58c1.901,0.138,3.81,0.189,5.715,0.23
	c2.639,0.058,5.278,0.067,7.918,0.1c2.256,0.028,2.256,0.029,4.466,1.47c-0.61,0.808-1.472,0.458-2.19,0.466
	c-5.598,0.061-11.195,0.057-16.793,0.127c-1.191,0.016-2.378,0.274-3.57,0.377c-1.35,0.116-2.737,0.423-4.05,0.234
	c-7.409-1.066-14.854-0.49-22.282-0.68c-1.395-0.035-2.781-0.391-4.172-0.59c-0.216-0.03-0.475-0.092-0.651-0.009
	c-2.577,1.212-5.334,0.603-8.007,0.796c-2.923,0.212-5.882-0.393-8.783,0.607c-0.834,0.288-1.894-0.029-2.843-0.138
	c-1.493-0.17-2.979-0.569-4.469-0.574c-9.514-0.037-19.028,0.006-28.542,0.032c-0.29,0.001-0.58,0.105-1.028,0.191
	c1.425,1.429,2.985,1.647,4.749,1.632c7.438-0.069,14.878-0.027,22.316-0.025c2.703,0.001,5.407-0.056,8.107,0.033
	c1.337,0.044,2.66,0.463,3.998,0.524c2.056,0.095,4.119,0.022,6.179,0.028c0.839,0.002,1.682-0.018,2.517,0.043
	c0.951,0.07,1.894,0.305,2.842,0.319c2.877,0.047,5.755,0.071,8.63-0.004c0.819-0.021,1.623-0.438,2.446-0.618
	c0.692-0.15,1.403-0.307,2.106-0.311c5.278-0.027,10.558-0.043,15.836-0.005c1.968,0.015,3.854,0.454,5.923,0.095
	c2.717-0.473,5.579-0.159,8.376-0.092c0.921,0.022,1.834,0.332,2.683,0.497c1.044-0.198,2.076-0.561,3.11-0.563
	c6.559-0.009,13.118,0.018,19.676,0.127c2.712,0.045,5.42,0.34,8.131,0.489c1.274,0.07,2.565,0.198,3.826,0.073
	c7.817-0.776,15.65-0.801,23.491-0.613c2.398,0.057,4.809,0.267,7.193,0.108c5.142-0.341,10.191,0.566,15.28,0.909
	c0.64,0.043,1.332,0.459,1.854,0.882c1.322,1.069,2.786,1.269,4.267,0.653c1.737-0.724,3.42-0.559,5.159-0.165
	c0.931,0.211,1.88,0.447,2.824,0.465c3.124,0.059,6.215,0.186,9.249,1.117c1.108,0.34,2.375,0.189,3.571,0.211
	c1.584,0.029,3.169,0.008,4.753,0.008c0.017,0.202,0.033,0.404,0.049,0.606c-0.812,0.072-1.622,0.192-2.435,0.209
	c-2.792,0.057-5.595-0.048-8.374,0.157c-1.63,0.12-3.246,0.644-4.823,1.132c-0.438,0.136-0.714,0.792-1.303,1.495
	c1.027,0.137,1.56,0.269,2.091,0.266c1.104-0.004,1.711,0.545,2.194,1.505c0.36,0.716,1.003,1.29,1.64,2.076
	c-0.355,0.838-2.061,1.317-1.409,3.047c1.084,0.397,2.669,0.485,2.672,2.296c0.001,0.758-0.077,0.781-2.336,1.576
	c0.942,0.602,1.655,1.099,2.406,1.526c1.088,0.619,2.203,1.189,3.308,1.778c0.627,0.335,1.224,0.857,1.889,0.967
	c2.742,0.454,5.507,0.767,8.259,1.167c0.857,0.125,1.69,0.432,2.549,0.532c1.736,0.204,3.481,0.328,5.224,0.478
	c0.656,0.057,1.467,0.139,1.315,0.964c-0.075,0.407-0.834,0.829-1.358,0.975c-0.592,0.164-1.271,0.058-1.907,0.013
	c-3.742-0.26-7.484-0.519-11.224-0.821c-0.867-0.07-1.72-0.312-2.58-0.474c-1.007-0.188-2.01-0.51-3.022-0.539
	c-2.817-0.083-3.354,0.514-3.443,3.851c1.545,0.049,3.107,0.168,4.667,0.132c2.323-0.052,4.631-0.179,6.863,0.702
	c0.58,0.229,1.256,0.304,1.888,0.301c3.191-0.016,6.386-0.182,9.573-0.094c2.276,0.063,4.513,0.517,6.333,2.623
	c-0.598,0.203-0.937,0.423-1.272,0.418c-3.342-0.052-6.686,0.282-10.008-0.638c-1.522-0.422-3.154-0.536-4.794,0.547
	c-0.878,0.58-2.472,0.034-3.74,0.078c-0.883,0.03-1.856-0.609-3.093,0.585c1.463,0.121,2.547,0.412,3.566,0.262
	c3.931-0.58,7.814,0.275,11.723,0.229c1.275-0.016,2.552,0.052,3.825,0.009c1.206-0.041,1.507,0.548,1.343,1.883
	c-1.397,0-2.739-0.007-4.08,0.002c-5.359,0.034-10.718,0.071-16.077,0.114c-0.639,0.005-1.286,0.003-1.915,0.101
	c-0.966,0.149-1.65,0.643-1.576,1.744c0.087,1.292-0.165,2.346-1.746,2.461c0.976,1.91,2.58,2.457,4.285,2.62
	c1.111,2.466-0.194,3.936-2.173,5.225c1.761,1.478,2.03,3.129,1.358,4.986c-0.069,0.191-0.099,0.541,0.009,0.631
	c1.661,1.381,0.792,3.165,0.826,4.824c-0.811,0.516-1.612,1.026-2.508,1.596c0.059,0.409,0.123,0.863,0.199,1.394
	c-0.269,0.12-0.55,0.349-0.837,0.357c-4.231,0.126-8.463,0.22-12.694,0.327c-1.515,0.038-3.029,0.077-4.543,0.14
	c-5.351,0.222-10.702,0.428-16.052,0.69c-4.945,0.242-9.885,0.644-14.833,0.804c-4.95,0.16-9.908,0.148-14.863,0.128
	c-2.097-0.009-4.127,0.176-6.074,0.992c-0.292,0.123-0.69,0.144-0.872,0.355c-1.566,1.82-3.652,1.555-5.721,1.56
	c-10.077,0.025-20.161-0.091-30.231,0.217c-7.568,0.231-15.116,1.084-22.68,1.551c-3.59,0.221-7.197,0.123-10.792,0.286
	c-3.665,0.167-7.321,0.536-10.986,0.709c-3.595,0.169-7.194,0.282-10.792,0.283c-21.518,0.006-43.035-0.021-64.552-0.051
	c-6.638-0.01-13.275-0.056-19.913-0.102c-0.716-0.005-1.483,0.032-2.137-0.203c-3.917-1.411-7.997-0.932-11.873-0.415
	c-4.997,0.667-9.936,0.679-14.917,0.473c-4.228-0.176-8.452-0.388-12.679-0.573c-0.479-0.021-1.001-0.095-1.432,0.057
	c-3.178,1.113-6.292,0.059-9.396-0.315c-2.742-0.331-5.433-1.083-8.155-1.599c-0.858-0.163-1.747-0.225-2.623-0.23
	c-4.077-0.03-8.154-0.028-12.232-0.03c-5.197-0.003-10.399,0.148-15.59-0.045c-4.274-0.159-8.355,0.79-12.642,1.535
	c-0.586-0.735-1.217-1.529-1.854-2.33c-0.235-0.038-0.473-0.118-0.707-0.107c-4.111,0.177-8.082-0.56-12.067-1.526
	c-1.976-0.479-4.133-0.224-6.208-0.278c-2.236-0.06-4.479-0.02-6.708-0.174c-0.989-0.068-1.944-0.542-2.931-0.765
	c-0.688-0.155-1.4-0.27-2.103-0.275c-4.313-0.032-8.634,0.098-12.941-0.076c-3.668-0.149-7.316-0.738-10.984-0.939
	c-3.19-0.175-6.4,0.022-9.593-0.126c-4.947-0.229-9.882-0.733-14.83-0.897c-4.87-0.162-9.75-0.032-14.626-0.058
	c-2.946-0.016-5.896-0.063-8.892-1.313c0.113-0.729,0.228-1.47,0.367-2.368c4.431,0.665,8.676,0.923,12.916,0.171
	c0.128-0.022,0.194-0.396,0.402-0.858c-2.91-0.921-5.923-0.279-8.945-0.96c0.31-1.194-0.176-1.845-1.185-1.68
	c-0.305-1.327-0.557-2.425-0.82-3.573c-0.852-0.255-1.661-0.498-2.471-0.74c0.004-0.172,0.008-0.343,0.013-0.514
	c1.638-0.148,3.276-0.296,4.915-0.443c0.03-0.15,0.06-0.301,0.09-0.451c-1.05-0.524-2.099-1.048-3.583-1.789
	c1.238-0.346,2.015-0.563,2.685-0.75c-1.055-1.28-2.054-2.493-3.228-3.918c1.139-0.479,1.948-0.821,3.288-1.385
	c-1.656-0.294-2.755-0.489-4.042-0.719c1.735-1.521,2.995-3.261,5.442-2.969c-1.249-1.237-2.844-1.221-4.301-1.503
	c-1.01-0.196-2.076-0.078-3.109-0.182c-2.529-0.257-5.054-0.572-7.582-0.839c-0.874-0.093-1.757-0.094-2.633-0.171
	c-3.318-0.291-6.635-0.596-9.97-0.896c-0.133-0.814-0.219-1.342-0.329-2.023c-2.913-0.346-5.835-0.701-8.759-1.037
	c-3.242-0.371-6.488-0.716-9.729-1.104c-0.257-0.031-0.482-0.32-1.153-0.793c2.132-0.521,3.833-1.179,5.573-1.309
	c3.74-0.28,7.505-0.402,11.192,0.638c0.401,0.113,1.005,0.045,1.329-0.191c4.885-3.572,6.349-3.925,12.004-2.814
	c0.545,0.106,1.119,0.189,1.666,0.137c2.771-0.263,5.538-0.574,8.463-0.886c0.137-0.364,0.173-0.971,0.486-1.206
	c1.805-1.35,1.195-2.674-0.164-4.098c0.783-0.712,1.463-1.33,2.374-2.158c-1.472-0.456-2.813-0.797-4.092-1.295
	c-0.755-0.295-1.412-0.839-2.278-1.373c1.157-1.091,2.322-0.761,3.354-0.933c0.612-0.103,1.48,0.048,1.801-0.307
	c1.711-1.896,4.087-1.507,6.198-2.007c2.205-0.523,4.417-1.021,6.605-1.994c-0.657-0.26-1.314-0.52-2.173-0.857
	c0.899-0.879,1.618-1.094,2.7-1.029c3.39,0.199,6.795,0.818,10.191,0.012c0.3-0.071,0.631-0.025,0.946-0.016
	c4.864,0.156,9.729,0.317,14.593,0.469c0.316,0.01,0.726,0.065,0.939-0.099c1.98-1.525,4.26-0.946,6.454-0.989
	c1.112-0.021,2.224-0.093,3.543-0.15c0.003-2.12,1.185-3.009,3.113-3.176c0.582-0.051,1.135-0.429,1.801-0.697
	c-6.004-4.696-12.962-3.896-20.087-4.044c0.461-0.406,0.592-0.624,0.733-0.632c7.339-0.389,14.676-0.856,22.02-1.082
	c2.859-0.088,5.733,0.398,8.604,0.574c1.514,0.093,3.035,0.076,4.553,0.117c1.078,0.028,2.073-0.051,2.625-1.216
	c0.514-1.086,0.332-1.994-0.478-2.843c-0.717-0.753-0.851-1.517,0.129-2.168c-2.099-2.405-2.099-2.405-0.311-4.368
	c-0.382-0.593-0.783-1.218-1.402-2.18c2.477-0.313,4.739-0.798,7.01-0.847c6.316-0.135,12.637-0.086,18.955-0.112
	c12.95-0.056,25.901-0.025,38.85-0.228c3.407-0.053,6.792-0.971,10.207-1.226c2.688-0.201,5.414-0.093,8.111,0.066
	c1.842,0.108,3.615,0.275,5.453-0.255c2.179-0.629,4.412-0.409,6.646,0.064c1.294,0.274,2.668,0.178,4.008,0.221
	c0.552,0.018,1.107-0.073,1.658-0.052c3.107,0.125,6.214,0.278,9.321,0.397c0.475,0.019,1.015,0.035,1.42-0.162
	c2.643-1.289,5.468-0.923,8.247-0.997c1.262-0.033,2.486,0.025,3.707-0.662c0.622-0.351,1.691-0.095,2.501,0.112
	c1.767,0.45,3.499,1.289,5.151-0.3c0.184-0.178,0.612-0.159,0.922-0.139c3.499,0.224,7.025-0.377,10.512,0.534
	c1.447,0.379,3.013,0.403,4.526,0.415c8.955,0.067,17.911,0.089,26.866,0.114c8.473,0.024,16.945-0.046,25.416,0.089
	c3.829,0.062,7.648,0.593,11.478,0.776c3.034,0.145,6.078,0.072,9.117,0.122C419.379,87.996,420.228,88.097,421.405,88.182z
	 M566.996,149.432c2.458,0.886,3.252,0.63,4.124-1.152C569.458,147.65,568.424,149.287,566.996,149.432z M446.057,99.641
	c-0.001-0.086-0.002-0.171-0.003-0.257c-2.174,0-4.348,0-6.521,0c0.001,0.086,0.001,0.171,0.002,0.257
	C441.708,99.641,443.882,99.641,446.057,99.641z M489.063,98.185c-0.462-0.346-0.687-0.646-0.901-0.639
	c-0.215,0.007-0.42,0.32-0.63,0.5c0.186,0.184,0.35,0.478,0.563,0.519S488.569,98.393,489.063,98.185z"/>
</svg>
