<?xml version="1.0" encoding="utf-8"?>
<!-- Generator: Adobe Illustrator 16.0.0, SVG Export Plug-In . SVG Version: 6.00 Build 0)  -->
<!DOCTYPE svg PUBLIC "-//W3C//DTD SVG 1.1//EN" "http://www.w3.org/Graphics/SVG/1.1/DTD/svg11.dtd">
<svg version="1.1" id="Layer_1" xmlns="http://www.w3.org/2000/svg" xmlns:xlink="http://www.w3.org/1999/xlink" x="0px" y="0px"
	 width="693px" height="262px" viewBox="0 0 693 262" enable-background="new 0 0 693 262" xml:space="preserve">
<path fill-rule="evenodd" clip-rule="evenodd" d="M212.516,70.082c0.462-0.121,0.918-0.276,1.387-0.356
	c1.23-0.211,2.583-0.814,3.68-0.512c7.436,2.053,15.016,1.828,22.597,1.736c0.235-0.002,0.472,0.053,0.849,0.098
	c0.105,0.207,0.26,0.463,0.369,0.736c0.115,0.287,0.188,0.592,0.279,0.888c1.763,0.551,3.274,0.279,4.787-0.705
	c1.844-1.2,3.844-1.139,5.934-0.487c0.917,0.285,2.03,0.236,2.986,0.027c1.124-0.245,2.145-0.463,3.258,0.047
	c0.47,0.215,1.087,0.19,1.629,0.154c1.664-0.11,3.322-0.369,4.986-0.408c6.474-0.147,12.949-0.221,19.424-0.349
	c2.236-0.045,4.439,0.055,6.422,1.234c1.858,1.106,3.857,0.753,5.841,0.681c1.014-0.037,2.029-0.01,3.044-0.005
	c2.072,0.012,4.146,0.034,6.218,0.041c4.558,0.015,9.115,0.061,13.673,0.006c0.984-0.012,1.957-0.502,2.95-0.58
	c1.417-0.11,2.854-0.129,4.272-0.033c2.384,0.16,4.757,0.46,7.138,0.666c3.335,0.289,6.669,0.633,10.011,0.793
	c3.753,0.181,7.514,0.248,11.271,0.241c2.639-0.005,5.252-0.146,7.838,0.657c1.04,0.322,2.219,0.242,3.336,0.263
	c3.903,0.071,7.813,0.002,11.71,0.196c2.272,0.112,4.524,0.625,7.27,1.029c-0.854,0.625-1.31,0.959-1.853,1.356
	c0.186,0.147,0.336,0.367,0.514,0.392c1.591,0.219,3.127,0.492,4.403,1.637c0.353,0.316,1.051,0.348,1.589,0.343
	c4.545-0.047,9.09-0.146,13.635-0.198c1.518-0.018,3.041,0.144,4.555,0.067c2.383-0.119,4.762-0.355,7.14-0.571
	c1.111-0.102,2.226-0.225,3.321-0.433c0.614-0.116,1.192-0.426,1.961-0.714c-2.443-0.455-4.558-0.848-6.965-1.296
	c1.065-1.104,2.06-0.724,2.954-0.77c1.092-0.056,2.187-0.065,3.28-0.094c0.8-0.021,1.631,0.085,1.693-1.146
	c0.011-0.215,0.754-0.563,1.153-0.557c1.339,0.022,2.676,0.168,4.012,0.289c0.23,0.021,0.503,0.283,0.668,0.216
	c2.79-1.135,5.463,0.555,8.246,0.307c2.777-0.248,5.595-0.076,8.394-0.042c1.166,0.015,2.283-0.052,3.45,0.6
	c0.73,0.407,2.008,0.073,2.953-0.212c1.039-0.313,1.954-0.677,2.872,0.199c0.162,0.154,0.425,0.249,0.653,0.278
	c2.447,0.315,4.892,0.681,7.349,0.892c1.813,0.155,3.644,0.115,5.467,0.143c1.237,0.019,2.476,0.003,3.808-0.402
	c-0.542-0.284-1.084-0.567-1.626-0.851c0.011-0.132,0.022-0.263,0.033-0.395c0.57-0.102,1.142-0.299,1.71-0.288
	c2.955,0.053,6.034-0.337,8.834,0.367c3.899,0.981,7.772,0.386,11.634,0.768c2.454,0.242,4.909,0.438,7.357-0.031
	c2.065-0.397,3.962,0.339,5.79,1.039c2.245,0.86,4.532,0.779,6.839,0.886c0.92,0.042,1.826,0.378,2.74,0.568
	c0.609,0.127,1.223,0.328,1.835,0.333c4.637,0.041,9.275,0.072,13.912,0.031c1.103-0.01,2.204-0.296,3.304-0.469
	c0.787-0.123,1.611-0.5,2.349-0.367c3.756,0.675,7.468-0.285,11.208-0.191c2.067,0.052,3.88,0.54,5.605,1.602
	c1.245,0.767,2.572,1.146,4.088,0.993c2.49-0.25,4.908,0.187,7.298,0.946c0.874,0.277,1.877,0.271,2.812,0.22
	c3.271-0.18,6.536-0.56,9.808-0.624c2.607-0.052,5.014-0.737,7.434-1.557c0.814-0.275,1.698-0.386,2.56-0.475
	c3.647-0.375,7.383-0.359,10.914-1.204c1.954-0.468,3.801-0.886,5.77-0.715c0.983,0.086,1.503,0.972,0.893,1.673
	c-1.688,1.937-0.8,3.458,0.531,5.001c0.156,0.18,0.271,0.396,0.49,0.721c-1.526,2.087-3.401,3.457-6.168,3.7
	c-3.72,0.326-7.414,0.93-11.123,1.539c3.396,0.254,6.793,0.426,10.194-0.23c1.093-0.211,2.212-0.396,3.318-0.393
	c1.939,0.006,2.207,0.641,1.056,2.697c1.262,0,2.4,0,3.803,0c0.211,0.354,0.568,0.954,0.974,1.635
	c-2.459,3.427-6.632,2.527-10.006,4.249c1.734,0.432,3.217,0.811,4.704,1.168c1.494,0.359,3.134-0.334,4.732,0.538
	c-0.659,1.009-1.443,1.401-2.447,1.482c-0.796,0.063-1.589,0.184-2.38,0.3c-0.854,0.126-1.523,0.454-1.505,1.602
	c1.669,0.82,3.971-0.228,5.348,1.807c-0.101,0.304-0.454,0.806-0.337,1.144c0.176,0.506,0.638,0.951,1.069,1.312
	c0.201,0.168,0.617,0.078,0.937,0.104c2.974,0.246,5.946,0.493,8.92,0.739c0.08,0.007,0.166,0.001,0.237,0.029
	c2.35,0.96,4.865,1.101,7.631,1.312c-0.412,0.61-0.649,0.963-1.104,1.637c1.494,0.257,2.842,0.488,4.56,0.783
	c-1.519,0.728-2.81,1.346-4.007,1.919c-0.178,1.653-0.372,3.457-0.595,5.522c1.663,0.353,3.609,0.767,5.556,1.18
	c0.015,0.197,0.029,0.395,0.044,0.592c-1.848,0.482-4.079,0.581-4.93,2.467c-0.739,1.64-1.909,3.466-0.324,5.332
	c-0.566,0.341-0.966,0.581-1.769,1.064c1.369,0.267,2.388,0.465,3.56,0.693c-0.873,1.704-3.231,1.996-3.516,4.019
	c0.68,0.844,1.27,1.773,2.055,2.489c0.608,0.556,1.42,1.074,2.209,1.207c1.886,0.319,3.813,0.378,5.718,0.592
	c0.571,0.064,1.124,0.294,1.69,0.762c-2.612,0.851-5.082,1.979-7.929,1.762c0,0.68,0,1.208,0,1.877
	c-1.699,0.611-3.315,1.386-3.688,3.587c0.811,0.643,2.776-0.163,2.712,1.939c-1.106,0.534-2.695,0.385-3.175,2.032
	c-0.09,0.309-0.957,0.514-1.48,0.55c-1.513,0.105-3.034,0.133-4.552,0.131c-3.839-0.005-7.678-0.057-11.516-0.057
	c-1.037-0.001-2.11,0.029-2.803,1.293c6.174,1.75,12.693,1.087,19.208,3.025c-3.507,1.704-6.472-0.929-9.751-0.212
	c0.76,1.132,1.712,1.454,2.827,1.471c1.439,0.021,2.879,0.038,4.318,0.047c2.701,0.016,2.701,0.013,6.314,1.851
	c-3.929,0.846-7.625-0.239-11.155,0.521c-0.007,0.187-0.013,0.373-0.02,0.561c1.345,0.053,2.691,0.174,4.033,0.139
	c1.373-0.035,2.473,0.383,3.645,1.803c-2.106,0.257-3.933,0.479-5.759,0.701c-0.013,0.076-0.024,0.152-0.036,0.229
	c1.008,0.075,2.025,0.276,3.021,0.198c1.585-0.125,2.942,0.335,4.281,1.104c1.034,0.594,1.706,1.224,1.635,2.592
	c-0.05,0.966,0.388,1.957,0.654,3.145c-0.405,0.756-1.169,1.274-2.342,1.265c-3.111-0.026-6.234,0.164-9.331-0.047
	c-1.504-0.102-2.957-0.92-4.439-1.391c-0.521-0.165-1.064-0.367-1.6-0.372c-8.631-0.079-17.263-0.13-25.895-0.177
	c-0.229-0.002-0.458,0.113-0.837,0.214c0.156,0.875,1.733,1.532,0.452,2.643c-0.136,0.021-0.4,0.149-0.597,0.081
	c-3.206-1.121-6.222,0.155-9.306,0.675c-1.088,0.184-2.227,0.156-3.336,0.099c-4.224-0.219-8.444-0.49-12.666-0.74
	c-0.557-0.033-1.222,0.122-1.65-0.128c-1.483-0.866-3.081-0.709-4.668-0.756c-1.104-0.032-2.166,0.026-3.2-0.678
	c-0.583-0.396-1.538-0.244-2.325-0.344c-2.195-0.278-4.387-0.584-6.585-0.825c-0.949-0.104-1.911-0.099-2.868-0.107
	c-1.437-0.015-2.875,0.038-4.311-0.004c-1.52-0.045-2.973-0.129-4.319,0.918c-0.545,0.425-1.55,0.53-2.278,0.402
	c-4.234-0.742-8.42-0.573-12.62,0.259c-1.244,0.246-2.557,0.125-3.819,0.298c-0.815,0.112-1.6,0.452-2.396,0.696
	c-0.15,0.046-0.295,0.18-0.436,0.172c-2.649-0.148-5.301,1.278-7.727,0.829c-2.798-0.518-5.284-0.007-7.93,0.294
	c-2.038,0.232-4.136-0.123-6.201-0.057c-1.734,0.056-3.409,0.387-5.118,0.938c-2.168,0.7-4.562,0.728-6.865,0.97
	c-1.798,0.188-3.608,0.262-5.409,0.662c11.425,2.001,22.924,0.979,34.681,0.856c-0.801,1.192-1.865,1.46-2.92,1.608
	c-1.024,0.145-2.082,0.046-3.111,0.166c-1.651,0.193-3.285,0.575-4.938,0.706c-2.706,0.213-5.422,0.327-8.136,0.403
	c-1.116,0.031-2.252-0.274-2.774,1.197c-0.113,0.319-0.738,0.568-1.163,0.64c-0.701,0.118-1.432,0.079-2.149,0.081
	c-2.942,0.011-5.89-0.079-8.824,0.069c-0.914,0.046-1.796,0.725-3.067,1.275c2.958,1.446,5.656,1.172,8.291,1.252
	c0.781,0.023,1.554-0.15,2.11,0.992c-0.664,0.131-1.156,0.311-1.648,0.313c-4.479,0.021-8.957-0.029-13.435,0.029
	c-1.467,0.02-3.034-0.304-4.321,0.892c-0.274,0.255-0.922,0.089-1.392,0.161c-1.326,0.207-2.646,0.46-3.975,0.651
	c-0.938,0.136-1.941,0.44-2.817,0.239c-1.126-0.258-2.04,0.045-2.971,0.457c-2.895,1.284-5.91,2.055-9.002,2.767
	c-3.72,0.857-7.489,0.447-11.128,1.07c-2.842,0.487-5.815,0.205-8.455,1.011c-3.816,1.165-7.597,0.578-11.378,0.9
	c-2.693,0.229-5.382,0.506-8.074,0.737c-0.874,0.074-1.756,0.058-2.632,0.11c-0.715,0.042-1.496-0.042-2.127,0.22
	c-2.483,1.034-5.039,0.678-7.572,0.49c-0.775-0.058-1.516-0.593-2.573-1.035c1.714-1.39,3.562-0.317,5.414-1.362
	c-3.363-0.722-6.233-0.438-9.106,0.04c-1.174,0.195-2.349,0.475-3.529,0.515c-3.272,0.112-6.548,0.111-9.822,0.167
	c-2.065,0.035-4.085,0.061-6.146,0.652c-1.795,0.516-3.811,0.229-5.721,0.387c-1.178,0.098-2.342,0.359-3.51,0.557
	c-0.313,0.053-0.622,0.199-0.933,0.2c-3.588,0.015-7.175,0.01-10.953,0.01c-0.15-0.426-0.354-0.996-0.612-1.726
	c-2.199,0.067-4.333-0.148-6.563,0.511c-1.855,0.549-3.936,0.364-5.918,0.445c-1.357,0.056-2.724-0.063-4.077,0.03
	c-1.175,0.079-2.332,0.387-3.505,0.516c-1.425,0.156-2.856,0.274-4.287,0.329c-1.519,0.058-3.04,0.031-4.56,0.02
	c-0.472-0.003-1.232,0.09-1.368-0.146c-0.813-1.409-2.073-0.801-3.179-0.835c-1.905-0.059-3.821,0.17-5.648-0.729
	c-0.596-0.293-1.413-0.153-2.131-0.176c-3.275-0.104-6.557-0.113-9.825-0.321c-2.104-0.134-4.107-0.809-6.111-1.515
	c-1.31-0.462-2.811-0.506-4.227-0.512c-2.951-0.011-5.999,0.628-8.83,0.081c-3.555-0.688-7.195-0.136-10.614-0.978
	c-4.604-1.134-9.218-0.601-13.818-0.904c-1.07-0.071-2.169-0.27-3.085,0.796c-0.357,0.416-1.357,0.416-2.052,0.378
	c-1.48-0.083-2.68,0.21-3.125,1.873c-4.064,0-7.978-0.004-11.891,0.004c-0.72,0.001-1.502-0.124-2.147,0.108
	c-4.141,1.493-8.219-0.063-12.248-0.444c-3.83-0.361-7.642-0.472-11.466-0.572c-1.011-0.026-2.027,0.329-3.049,0.433
	c-0.856,0.087-1.731,0.144-2.585,0.07c-1.421-0.12-2.837-0.549-4.245-0.505c-4.15,0.13-8.293,0.559-12.443,0.632
	c-7.755,0.137-15.52,0.293-23.266,0.029c-2.228-0.076-4.771-0.056-6.836-1.591c-0.433-0.321-1.242-0.159-1.879-0.178
	c-1.043-0.029-1.838-0.407-2.282-1.543c1.306-0.53,3.191,1.497,4.172-1.059c-2.817-0.51-5.516-0.999-8.296-1.503
	c-0.151-0.54-0.208-1.111-0.459-1.577c-1.121-2.08-2.389-3.482-5.253-3.486c-3.449-0.004-6.897-0.972-10.347-1.521
	c-0.395-0.063-0.79-0.123-1.187-0.164c-3.716-0.388-7.432-0.768-11.146-1.163c-0.214-0.022-0.415-0.166-0.939-0.389
	c0.688-0.79,1.27-1.458,1.991-2.287c-0.955-0.248-1.826-0.476-2.631-0.685c-0.458-1.53-0.874-2.959-1.314-4.381
	c-0.447-1.444-1.349-2.088-2.904-2.257c-2.29-0.248-4.693-0.201-6.833-0.921c-3.561-1.196-7.188-0.777-10.869-1.106
	c-0.543-1.331-0.678-2.492,0.618-3.598c0.633-0.539,0.958-1.439,1.547-2.374c2.31,0.051,4.908,0.171,6.33-2.99
	c-0.731-0.292-1.454-0.706-2.228-0.854c-0.854-0.164-1.753-0.104-2.632-0.107c-0.788-0.003-1.665-0.229-1.584-1.043
	c0.062-0.609,0.76-1.291,1.349-1.67c0.49-0.315,1.241-0.202,1.863-0.341c1.334-0.296,2.273-1.034,2.665-2.781
	c-1.302-0.038-2.525-0.077-3.749-0.108c-1.177-0.029-2.354-0.05-3.623-0.076c-0.217-1.924,0.749-2.66,2.08-3.183
	c1.679-0.659,3.2-1.485,3.092-3.722c1.521-0.097,3.071,0.103,3.748-1.7c-1.239-1.346-2.939-0.709-4.415-0.834
	c-2.606-0.22-5.235-0.164-7.851-0.306c-0.493-0.027-0.965-0.439-1.533-0.716c0.305-0.781,0.559-1.431,0.883-2.26
	c-0.598-0.316-1.174-0.78-1.824-0.937c-2.155-0.516-4.32-1.088-6.515-1.32c-2.228-0.237-4.405-0.35-6.261-1.835
	c-0.392-0.313-1.047-0.297-1.727-0.47c0.477-1.753,1.334-2.705,3.212-2.875c1.729-0.155,3.423-0.71,5.131-1.095
	c0.669-0.15,1.383-0.484,1.098-1.226c-0.145-0.375-0.987-0.629-1.534-0.669c-1.313-0.095-2.636-0.03-3.961-0.236
	c1.653-1.547,3.717,0.08,5.525-0.717c-0.439-0.815-0.705-1.621-1.227-2.195c-0.604-0.664-1.389-1.2-2.174-1.653
	c-0.925-0.535-1.936-0.922-2.909-1.373c0.016-0.176,0.031-0.352,0.048-0.527c0.815-0.063,1.63-0.17,2.446-0.18
	c2.318-0.029,4.64-0.079,6.955-0.004c1.598,0.052,2.811-0.698,4.525-1.632c-3.232-0.54-6.221-0.026-8.958-1.605
	c1.639-1.718,3.579-0.446,5.188-1.093c-0.919-1.191-1.959-1.509-3.353-1.463c-2.711,0.09-5.43-0.074-8.145-0.17
	c-0.38-0.014-0.753-0.236-1.211-0.391c0-0.791,0-1.568,0-2.423c0.505-0.181,1.004-0.359,1.639-0.587
	c-0.813-1.023-2.595-1.503-1.746-3.189c1.503-0.536,2.974-1.061,4.715-1.682c-1.028-1.184-1.913-2.202-2.782-3.202
	c0.771-1.575,1.436-3.131,2.846-4.22c0.251-0.194,0.393-0.959,0.221-1.195c-0.691-0.95,0.248-1.222,0.618-1.741
	c-1.914-0.74-4.075-0.964-5.934-3.135c3.836-0.047,7.118,1.563,10.559,0.491c-2.675-2.392-5.992-1.194-8.869-1.959
	c0.762-2.694,0.762-2.694,3.961-3.007c0.191-0.508,0.404-1.077,0.573-1.526c3.281-1.733,6.764-1.038,10.13-1.299
	c1.51-0.116,3.025-0.149,4.627-0.554c-0.594-0.182-1.189-0.354-1.778-0.548c-0.603-0.199-1.191-0.58-1.797-0.604
	c-3.11-0.118-6.22-0.218-9.215-1.174c-1.719-0.548-3.4-1.214-5.113-1.784c-1.033-0.345-1.046-1.055-0.758-2.086
	c0.536-0.179,1.171-0.392,2.231-0.746c-0.669-0.646-1.146-1.055-1.559-1.521c-0.328-0.371-0.887-0.894-0.805-1.209
	c0.262-1.003,0.529-2.22,1.242-2.842c1.323-1.157,2.794-2.437,4.872-1.693c3.519,1.26,7.103,0.559,10.683,0.389
	c4.142-0.196,8.291-0.209,12.438-0.296c0.796-0.017,1.593,0.004,2.389-0.006c5.757-0.07,11.514-0.134,17.271-0.219
	c3.835-0.057,7.671-0.198,11.507-0.207c5.037-0.011,10.075,0.08,15.112,0.107c0.851,0.005,1.701-0.089,2.816-0.152
	c-0.95-1.662-2.229-1.813-3.587-1.795c-1.248,0.016-2.525,0.273-4.282-0.586c1.077-0.254,1.63-0.507,2.177-0.494
	c5.185,0.122,10.367,0.297,15.552,0.44c6.954,0.192,13.908,0.37,20.862,0.555c2.958,0.078,5.934-0.017,8.871,0.269
	c4.995,0.485,9.985,1.099,14.939,1.9c1.483,0.24,2.969,1.106,4.205,2.021c0.908,0.673,1.737,1.039,2.813,1.013
	c4.158-0.102,8.316-0.218,12.475-0.282c1.464-0.022,2.686-0.596,3.928-1.169c-0.017-0.169-0.033-0.338-0.05-0.508
	c-1.239-0.054-2.481-0.077-3.718-0.173c-0.84-0.064-1.833,0.123-2.214-0.996L212.516,70.082z M595.889,161.509
	c-2.412-0.749-3.318-0.675-5.801-0.203c-1.143,0.217-2.377,0.262-3.524,0.089c-4.085-0.616-8.109-1.634-12.292-1.547
	c-1.177,0.024-2.356-0.388-3.542-0.441c-0.991-0.046-1.991,0.184-2.99,0.213c-2.118,0.062-4.293,0.377-6.342,0.011
	c-1.781-0.317-1.719-0.669-2.771,0.932c0.129,0.073,0.255,0.204,0.388,0.211c4.291,0.215,8.618,0.097,12.783,1.441
	c0.139,0.044,0.319-0.005,0.472-0.042c4.12-1.018,8.018,1.052,12.081,0.889c0.417-0.017,0.837,0.414,1.279,0.566
	c2.882,0.989,5.809,1.61,9.04,1.037C594.224,163.276,594.023,161.995,595.889,161.509z M563.292,83.858
	c-0.402,1.731,0.232,2.53,1.37,2.076c1.449-0.578,2.742-0.286,4.122-0.073c0.464,0.071,1.004,0.095,1.426-0.071
	c2.454-0.969,5.037-0.718,7.576-0.902c0.518-0.038,1.029-0.181,1.937-0.348c-0.596-0.377-0.837-0.661-1.079-0.662
	C573.548,83.852,568.453,83.858,563.292,83.858z M577.299,168.755c-3.147-1.039-9.915-0.998-11.992-0.131
	c1.783,0.401,3.362,0.762,4.945,1.107c0.146,0.031,0.363,0.025,0.459-0.062c1.224-1.112,2.72-0.613,4.111-0.718
	C575.648,168.891,576.474,168.821,577.299,168.755z M575.066,91.543c-1.604-2.007-3.833-1.921-5.288,0.219
	C571.593,92.404,573.316,92.303,575.066,91.543z M492.963,170.293c2.768,0.791,4.33,0.744,6.242,0
	C496.787,170.293,494.875,170.293,492.963,170.293z M559.53,164.651c0.001-0.097,0.003-0.193,0.005-0.29c-0.703,0-1.406,0-2.109,0
	c-0.001,0.097-0.002,0.193-0.004,0.29C558.125,164.651,558.827,164.651,559.53,164.651z M82.071,115.303
	c0.001,0.114,0.002,0.229,0.003,0.344c0.637,0,1.272,0,1.909,0c-0.002-0.114-0.003-0.229-0.005-0.344
	C83.343,115.303,82.707,115.303,82.071,115.303z"/>
</svg>
