<?xml version="1.0" encoding="utf-8"?>
<!-- Generator: Adobe Illustrator 23.0.1, SVG Export Plug-In . SVG Version: 6.00 Build 0)  -->
<svg version="1.1" id="Layer_1" xmlns="http://www.w3.org/2000/svg" xmlns:xlink="http://www.w3.org/1999/xlink" x="0px" y="0px"
	 viewBox="0 0 500 500" style="enable-background:new 0 0 500 500;" xml:space="preserve">
<style type="text/css">
	.st0{display:none;}
	.st1{display:inline;}
	.st2{fill:#231F20;}
	.st3{fill:none;stroke:#231F20;stroke-width:4;stroke-miterlimit:10;}
	.st4{fill:none;stroke:#231F20;stroke-width:7;stroke-miterlimit:10;}
</style>
<g id="Layer_3" class="st0">
	<g class="st1">
		<path class="st2" d="M-388.7,244.9c0,0,48.5-39,49.4-36.5s0.2,14-2.3,14s-40.5,27.6-48.7,39.1S-388.7,244.9-388.7,244.9z"/>
		<path class="st2" d="M-346.4,264.3c0.6,19.4,12.4-15.3,14-30.6c0.8-7.6,10-89.2-16.5-86.2c-3.8,0.4-4.4,4.2-1.2,11.5
			C-340.7,180.5-347.3,236-346.4,264.3z"/>
		<path class="st2" d="M-316.8,337c-1.3,12.8-7.5-10.7-7.8-20.8c-0.2-5-2.4-59.4,14.9-56.2c2.5,0.5,2.7,3,0.3,7.7
			C-316.6,281.4-314.9,318.3-316.8,337z"/>
		<path class="st2" d="M-406.1,349c-0.3,6.4,8.1,4.2,8.8-3c5-54.5,17.9-177.8,45.1-188.6c18.1-7.2,9.5-5,9.5-5s-4.6-11-13.8-0.9
			C-376.1,173.1-401.1,244.1-406.1,349z"/>
		<path class="st3" d="M-126.9,242.6c0,107-84.4,208.2-208.2,208.2c-115,0-208.2-93.2-208.2-208.2s93.2-208.2,208.2-208.2
			C-220.1,34.4-126.9,127.6-126.9,242.6z"/>
		<path class="st2" d="M-314.1,272.7c0,0,12.7-21.3,40.3-19.9c19.5,1-39.4,17.8-41.2,34.3C-317.4,307.7-316.3,305-314.1,272.7z"/>
	</g>
</g>
<g>
	<g>
		<path class="st4" d="M431.7,254c0,93.3-73.6,181.7-181.7,181.7c-100.3,0-181.7-81.3-181.7-181.7c0-100.3,81.3-181.7,181.7-181.7
			S431.7,153.7,431.7,254z"/>
		<g>
			<path class="st2" d="M247.9,163c-7.3-3.1-12.1-0.3-17.6,6.5c-5.6,6.8-40.2,84.3-40.2,167.8c0,8.7,8.8,3.6,9.1-2.1
				c1.6-25.6,6.1-70.8,10.8-79.9c2.4-4.7,34.1-33.8,34.9-26.1c1,9.7-3.9,40.9,0.7,39.1c4.5-1.7,8.9-14.4,9.8-36.6
				C256.4,208.2,255.7,166.3,247.9,163z M243.4,217.8c0.7,9.5-32.9,31.8-30.2,22.1c4.2-43.8,27.7-70.6,27.7-70.6
				C243,167.1,245.1,213.9,243.4,217.8z"/>
		</g>
		<path class="st2" d="M266.3,187"/>
		<path class="st2" d="M270.7,279.5c0,0,18-37.1,36.7-22.3c5.8,4.6-14.1,0-35.8,32.5C270.9,290.7,270.7,279.5,270.7,279.5z"/>
		<path class="st2" d="M275.1,275.3c0,0,0.5-15.1-3-11.4c-3.6,3.7-6.1,7.3-6,8.3s-5.4,55.6-2.6,55.3c2.8-0.3,8.3-5.1,10.5-11.2"/>
	</g>
	<path class="st2" d="M208.6,243.1c0,0,43.1-32.8,43.8-30.6s-0.2,12.2-2.3,12.1c-2.2-0.1-35.9,23.1-43.3,32.9
		C199.5,267.4,208.6,243.1,208.6,243.1z"/>
</g>
</svg>
